<mxfile host="app.diagrams.net" modified="2021-09-16T03:06:56.602Z" agent="5.0 (Windows NT 10.0; Win64; x64) AppleWebKit/537.36 (KHTML, like Gecko) Chrome/93.0.4577.63 Safari/537.36" etag="Oc_7WJ4qZSOFoK6zu02p" version="15.1.4" type="github">
  <diagram id="prtHgNgQTEPvFCAcTncT" name="Page-1">
    <mxGraphModel dx="1550" dy="972" grid="1" gridSize="10" guides="1" tooltips="1" connect="1" arrows="1" fold="1" page="1" pageScale="1" pageWidth="827" pageHeight="1169" math="0" shadow="0">
      <root>
        <mxCell id="0" />
        <mxCell id="1" parent="0" />
        <mxCell id="c77sjMFtBSOwkNbIwre2-5" style="edgeStyle=orthogonalEdgeStyle;rounded=0;orthogonalLoop=1;jettySize=auto;html=1;entryX=0.5;entryY=0;entryDx=0;entryDy=0;" parent="1" source="c77sjMFtBSOwkNbIwre2-1" target="c77sjMFtBSOwkNbIwre2-4" edge="1">
          <mxGeometry relative="1" as="geometry" />
        </mxCell>
        <mxCell id="c77sjMFtBSOwkNbIwre2-1" value="创建巡检计划&lt;br&gt;(一次创建产生多条待安排记录)" style="rounded=1;whiteSpace=wrap;html=1;fillColor=#d5e8d4;strokeColor=#82b366;" parent="1" vertex="1">
          <mxGeometry x="170" y="210" width="120" height="60" as="geometry" />
        </mxCell>
        <mxCell id="c77sjMFtBSOwkNbIwre2-3" style="edgeStyle=orthogonalEdgeStyle;rounded=0;orthogonalLoop=1;jettySize=auto;html=1;" parent="1" source="c77sjMFtBSOwkNbIwre2-2" target="c77sjMFtBSOwkNbIwre2-1" edge="1">
          <mxGeometry relative="1" as="geometry" />
        </mxCell>
        <mxCell id="c77sjMFtBSOwkNbIwre2-2" value="开始" style="ellipse;whiteSpace=wrap;html=1;aspect=fixed;labelBorderColor=none;fillColor=#d5e8d4;strokeColor=#82b366;" parent="1" vertex="1">
          <mxGeometry x="190" y="100" width="80" height="80" as="geometry" />
        </mxCell>
        <object label="" id="c77sjMFtBSOwkNbIwre2-6">
          <mxCell style="edgeStyle=orthogonalEdgeStyle;rounded=0;orthogonalLoop=1;jettySize=auto;html=1;exitX=1;exitY=0.5;exitDx=0;exitDy=0;" parent="1" source="c77sjMFtBSOwkNbIwre2-4" edge="1">
            <mxGeometry relative="1" as="geometry">
              <mxPoint x="230" y="290" as="targetPoint" />
              <Array as="points">
                <mxPoint x="340" y="340" />
                <mxPoint x="340" y="290" />
              </Array>
            </mxGeometry>
          </mxCell>
        </object>
        <mxCell id="c77sjMFtBSOwkNbIwre2-9" style="edgeStyle=orthogonalEdgeStyle;rounded=0;orthogonalLoop=1;jettySize=auto;html=1;entryX=0.5;entryY=0;entryDx=0;entryDy=0;" parent="1" source="c77sjMFtBSOwkNbIwre2-4" target="c77sjMFtBSOwkNbIwre2-8" edge="1">
          <mxGeometry relative="1" as="geometry" />
        </mxCell>
        <mxCell id="c77sjMFtBSOwkNbIwre2-4" value="即将到时？" style="rhombus;whiteSpace=wrap;html=1;gradientColor=#ffd966;fillColor=#fff2cc;strokeColor=#d6b656;" parent="1" vertex="1">
          <mxGeometry x="170" y="310" width="120" height="60" as="geometry" />
        </mxCell>
        <mxCell id="c77sjMFtBSOwkNbIwre2-7" value="N" style="text;html=1;align=center;verticalAlign=middle;resizable=0;points=[];autosize=1;strokeColor=none;fillColor=none;" parent="1" vertex="1">
          <mxGeometry x="320" y="280" width="20" height="20" as="geometry" />
        </mxCell>
        <mxCell id="c77sjMFtBSOwkNbIwre2-11" value="" style="edgeStyle=orthogonalEdgeStyle;rounded=0;orthogonalLoop=1;jettySize=auto;html=1;" parent="1" source="c77sjMFtBSOwkNbIwre2-8" target="c77sjMFtBSOwkNbIwre2-10" edge="1">
          <mxGeometry relative="1" as="geometry" />
        </mxCell>
        <mxCell id="c77sjMFtBSOwkNbIwre2-8" value="预约客户时间" style="rounded=1;whiteSpace=wrap;html=1;fillColor=#d5e8d4;strokeColor=#82b366;" parent="1" vertex="1">
          <mxGeometry x="170" y="410" width="120" height="60" as="geometry" />
        </mxCell>
        <mxCell id="c77sjMFtBSOwkNbIwre2-14" value="" style="edgeStyle=orthogonalEdgeStyle;rounded=0;orthogonalLoop=1;jettySize=auto;html=1;entryX=0.5;entryY=0;entryDx=0;entryDy=0;" parent="1" source="c77sjMFtBSOwkNbIwre2-10" target="c77sjMFtBSOwkNbIwre2-15" edge="1">
          <mxGeometry relative="1" as="geometry">
            <mxPoint x="90" y="590" as="targetPoint" />
          </mxGeometry>
        </mxCell>
        <mxCell id="c77sjMFtBSOwkNbIwre2-25" style="edgeStyle=orthogonalEdgeStyle;rounded=0;orthogonalLoop=1;jettySize=auto;html=1;exitX=1;exitY=0.5;exitDx=0;exitDy=0;entryX=0.5;entryY=0;entryDx=0;entryDy=0;" parent="1" source="c77sjMFtBSOwkNbIwre2-10" target="c77sjMFtBSOwkNbIwre2-12" edge="1">
          <mxGeometry relative="1" as="geometry">
            <mxPoint x="414" y="690" as="targetPoint" />
          </mxGeometry>
        </mxCell>
        <mxCell id="c77sjMFtBSOwkNbIwre2-10" value="指派服务工程师" style="whiteSpace=wrap;html=1;rounded=1;fillColor=#d5e8d4;strokeColor=#82b366;" parent="1" vertex="1">
          <mxGeometry x="170" y="520" width="120" height="60" as="geometry" />
        </mxCell>
        <mxCell id="c77sjMFtBSOwkNbIwre2-26" style="edgeStyle=orthogonalEdgeStyle;rounded=0;orthogonalLoop=1;jettySize=auto;html=1;exitX=0.5;exitY=1;exitDx=0;exitDy=0;entryX=0.5;entryY=0;entryDx=0;entryDy=0;" parent="1" source="c77sjMFtBSOwkNbIwre2-12" target="c77sjMFtBSOwkNbIwre2-21" edge="1">
          <mxGeometry relative="1" as="geometry" />
        </mxCell>
        <mxCell id="c77sjMFtBSOwkNbIwre2-12" value="工单" style="rounded=1;whiteSpace=wrap;html=1;fillColor=#f8cecc;strokeColor=#b85450;" parent="1" vertex="1">
          <mxGeometry x="390" y="690" width="120" height="60" as="geometry" />
        </mxCell>
        <mxCell id="c77sjMFtBSOwkNbIwre2-19" style="edgeStyle=orthogonalEdgeStyle;rounded=0;orthogonalLoop=1;jettySize=auto;html=1;entryX=0.5;entryY=0;entryDx=0;entryDy=0;" parent="1" source="c77sjMFtBSOwkNbIwre2-15" target="c77sjMFtBSOwkNbIwre2-18" edge="1">
          <mxGeometry relative="1" as="geometry" />
        </mxCell>
        <mxCell id="c77sjMFtBSOwkNbIwre2-15" value="&lt;span&gt;时间冲突？&lt;/span&gt;" style="rhombus;whiteSpace=wrap;html=1;gradientColor=#ffd966;fillColor=#fff2cc;strokeColor=#d6b656;" parent="1" vertex="1">
          <mxGeometry x="20" y="600" width="120" height="50" as="geometry" />
        </mxCell>
        <mxCell id="c77sjMFtBSOwkNbIwre2-24" style="edgeStyle=orthogonalEdgeStyle;rounded=0;orthogonalLoop=1;jettySize=auto;html=1;exitX=1;exitY=0.5;exitDx=0;exitDy=0;entryX=0;entryY=0.5;entryDx=0;entryDy=0;" parent="1" source="c77sjMFtBSOwkNbIwre2-18" target="c77sjMFtBSOwkNbIwre2-12" edge="1">
          <mxGeometry relative="1" as="geometry" />
        </mxCell>
        <mxCell id="c77sjMFtBSOwkNbIwre2-18" value="修改预约时间" style="rounded=1;whiteSpace=wrap;html=1;fillColor=#dae8fc;strokeColor=#6c8ebf;" parent="1" vertex="1">
          <mxGeometry x="20" y="690" width="120" height="60" as="geometry" />
        </mxCell>
        <mxCell id="c77sjMFtBSOwkNbIwre2-28" value="" style="edgeStyle=orthogonalEdgeStyle;rounded=0;orthogonalLoop=1;jettySize=auto;html=1;" parent="1" source="c77sjMFtBSOwkNbIwre2-21" target="c77sjMFtBSOwkNbIwre2-27" edge="1">
          <mxGeometry relative="1" as="geometry" />
        </mxCell>
        <mxCell id="c77sjMFtBSOwkNbIwre2-21" value="按预约时间巡检并填写巡检内容" style="rounded=1;whiteSpace=wrap;html=1;fillColor=#f8cecc;strokeColor=#b85450;" parent="1" vertex="1">
          <mxGeometry x="390" y="770" width="120" height="60" as="geometry" />
        </mxCell>
        <mxCell id="c77sjMFtBSOwkNbIwre2-40" style="edgeStyle=orthogonalEdgeStyle;rounded=0;orthogonalLoop=1;jettySize=auto;html=1;entryX=1;entryY=0.5;entryDx=0;entryDy=0;fontColor=#000000;" parent="1" source="c77sjMFtBSOwkNbIwre2-27" target="c77sjMFtBSOwkNbIwre2-39" edge="1">
          <mxGeometry relative="1" as="geometry" />
        </mxCell>
        <mxCell id="c77sjMFtBSOwkNbIwre2-27" value="完成巡检、提交巡检记录" style="whiteSpace=wrap;html=1;rounded=1;fillColor=#f8cecc;strokeColor=#b85450;" parent="1" vertex="1">
          <mxGeometry x="390" y="865" width="120" height="60" as="geometry" />
        </mxCell>
        <mxCell id="c77sjMFtBSOwkNbIwre2-31" value="" style="endArrow=none;dashed=1;html=1;dashPattern=1 3;strokeWidth=2;exitX=1;exitY=0.5;exitDx=0;exitDy=0;entryX=-0.007;entryY=0.52;entryDx=0;entryDy=0;entryPerimeter=0;" parent="1" source="c77sjMFtBSOwkNbIwre2-1" target="c77sjMFtBSOwkNbIwre2-32" edge="1">
          <mxGeometry width="50" height="50" relative="1" as="geometry">
            <mxPoint x="330" y="198" as="sourcePoint" />
            <mxPoint x="460" y="220" as="targetPoint" />
          </mxGeometry>
        </mxCell>
        <mxCell id="c77sjMFtBSOwkNbIwre2-32" value="巡检计划：待安排" style="text;html=1;align=center;verticalAlign=middle;resizable=0;points=[];autosize=1;strokeColor=#d79b00;fillColor=#ffcd28;gradientColor=#ffa500;" parent="1" vertex="1">
          <mxGeometry x="810" y="230" width="110" height="20" as="geometry" />
        </mxCell>
        <mxCell id="c77sjMFtBSOwkNbIwre2-33" value="" style="endArrow=none;dashed=1;html=1;dashPattern=1 3;strokeWidth=2;exitX=1;exitY=0.25;exitDx=0;exitDy=0;entryX=-0.008;entryY=0.467;entryDx=0;entryDy=0;entryPerimeter=0;" parent="1" source="c77sjMFtBSOwkNbIwre2-10" target="c77sjMFtBSOwkNbIwre2-34" edge="1">
          <mxGeometry width="50" height="50" relative="1" as="geometry">
            <mxPoint x="330" y="530" as="sourcePoint" />
            <mxPoint x="632.0800000000002" y="536.8" as="targetPoint" />
          </mxGeometry>
        </mxCell>
        <mxCell id="c77sjMFtBSOwkNbIwre2-34" value="巡检计划：更改为 -- 待服务&lt;br&gt;工单：待服务" style="text;html=1;align=left;verticalAlign=middle;resizable=0;points=[];autosize=1;strokeColor=#d79b00;fillColor=#ffcd28;gradientColor=#ffa500;" parent="1" vertex="1">
          <mxGeometry x="810" y="520" width="160" height="30" as="geometry" />
        </mxCell>
        <mxCell id="c77sjMFtBSOwkNbIwre2-35" value="" style="endArrow=none;dashed=1;html=1;dashPattern=1 3;strokeWidth=2;exitX=1;exitY=0.25;exitDx=0;exitDy=0;entryX=-0.02;entryY=0.493;entryDx=0;entryDy=0;entryPerimeter=0;" parent="1" source="c77sjMFtBSOwkNbIwre2-45" target="c77sjMFtBSOwkNbIwre2-51" edge="1">
          <mxGeometry width="50" height="50" relative="1" as="geometry">
            <mxPoint x="220.98000000000002" y="994.5" as="sourcePoint" />
            <mxPoint x="520" y="994.5" as="targetPoint" />
          </mxGeometry>
        </mxCell>
        <mxCell id="c77sjMFtBSOwkNbIwre2-36" value="巡检计划：待服务&lt;br&gt;工单：更改为 -- 待确认" style="text;html=1;align=left;verticalAlign=middle;resizable=0;points=[];autosize=1;strokeColor=#d79b00;fillColor=#ffcd28;gradientColor=#ffa500;" parent="1" vertex="1">
          <mxGeometry x="810" y="880" width="140" height="30" as="geometry" />
        </mxCell>
        <mxCell id="c77sjMFtBSOwkNbIwre2-37" value="客服人员填写预约时间&lt;br&gt;产生工单" style="text;html=1;align=center;verticalAlign=middle;resizable=0;points=[];autosize=1;strokeColor=none;fillColor=none;" parent="1" vertex="1">
          <mxGeometry x="380" y="590" width="140" height="30" as="geometry" />
        </mxCell>
        <mxCell id="c77sjMFtBSOwkNbIwre2-38" value="修改工单预约时间" style="text;html=1;align=center;verticalAlign=middle;resizable=0;points=[];autosize=1;strokeColor=none;fillColor=none;fontColor=#000000;" parent="1" vertex="1">
          <mxGeometry x="210" y="700" width="110" height="20" as="geometry" />
        </mxCell>
        <mxCell id="c77sjMFtBSOwkNbIwre2-43" value="" style="edgeStyle=orthogonalEdgeStyle;rounded=0;orthogonalLoop=1;jettySize=auto;html=1;fontColor=#000000;exitX=0.5;exitY=0;exitDx=0;exitDy=0;" parent="1" source="c77sjMFtBSOwkNbIwre2-39" edge="1">
          <mxGeometry relative="1" as="geometry">
            <mxPoint x="50" y="785" as="sourcePoint" />
            <mxPoint x="450" y="850" as="targetPoint" />
            <Array as="points">
              <mxPoint x="70" y="850" />
            </Array>
          </mxGeometry>
        </mxCell>
        <mxCell id="c77sjMFtBSOwkNbIwre2-49" style="edgeStyle=orthogonalEdgeStyle;rounded=0;orthogonalLoop=1;jettySize=auto;html=1;exitX=0.5;exitY=1;exitDx=0;exitDy=0;entryX=0.5;entryY=0;entryDx=0;entryDy=0;fontColor=#000000;" parent="1" source="c77sjMFtBSOwkNbIwre2-39" target="c77sjMFtBSOwkNbIwre2-45" edge="1">
          <mxGeometry relative="1" as="geometry" />
        </mxCell>
        <mxCell id="c77sjMFtBSOwkNbIwre2-39" value="OK？" style="rhombus;whiteSpace=wrap;html=1;align=center;gradientColor=#ffd966;fillColor=#fff2cc;strokeColor=#d6b656;" parent="1" vertex="1">
          <mxGeometry x="20" y="865" width="100" height="60" as="geometry" />
        </mxCell>
        <mxCell id="c77sjMFtBSOwkNbIwre2-44" value="N" style="text;html=1;align=center;verticalAlign=middle;resizable=0;points=[];autosize=1;strokeColor=none;fillColor=none;fontColor=#000000;" parent="1" vertex="1">
          <mxGeometry x="80" y="850" width="20" height="20" as="geometry" />
        </mxCell>
        <mxCell id="c77sjMFtBSOwkNbIwre2-54" style="edgeStyle=orthogonalEdgeStyle;rounded=0;orthogonalLoop=1;jettySize=auto;html=1;exitX=0.5;exitY=1;exitDx=0;exitDy=0;entryX=0;entryY=0.5;entryDx=0;entryDy=0;fontColor=#000000;" parent="1" source="c77sjMFtBSOwkNbIwre2-45" target="c77sjMFtBSOwkNbIwre2-52" edge="1">
          <mxGeometry relative="1" as="geometry" />
        </mxCell>
        <mxCell id="c77sjMFtBSOwkNbIwre2-45" value="签字确认" style="rounded=1;whiteSpace=wrap;html=1;align=center;fillColor=#dae8fc;strokeColor=#6c8ebf;" parent="1" vertex="1">
          <mxGeometry x="10" y="980" width="120" height="60" as="geometry" />
        </mxCell>
        <mxCell id="c77sjMFtBSOwkNbIwre2-47" value="Y" style="text;html=1;align=center;verticalAlign=middle;resizable=0;points=[];autosize=1;strokeColor=none;fillColor=none;fontColor=#000000;" parent="1" vertex="1">
          <mxGeometry x="70" y="930" width="20" height="20" as="geometry" />
        </mxCell>
        <mxCell id="c77sjMFtBSOwkNbIwre2-50" value="" style="endArrow=none;dashed=1;html=1;dashPattern=1 3;strokeWidth=2;exitX=1;exitY=0.5;exitDx=0;exitDy=0;entryX=-0.019;entryY=0.6;entryDx=0;entryDy=0;entryPerimeter=0;" parent="1" source="c77sjMFtBSOwkNbIwre2-57" target="c77sjMFtBSOwkNbIwre2-72" edge="1">
          <mxGeometry width="50" height="50" relative="1" as="geometry">
            <mxPoint x="152" y="1236.99" as="sourcePoint" />
            <mxPoint x="670" y="1230" as="targetPoint" />
          </mxGeometry>
        </mxCell>
        <mxCell id="c77sjMFtBSOwkNbIwre2-51" value="巡检计划：更改为 -- 已完成&lt;br&gt;工单：更改为 -- 待审核" style="text;html=1;align=left;verticalAlign=middle;resizable=0;points=[];autosize=1;strokeColor=#d79b00;fillColor=#ffcd28;gradientColor=#ffa500;" parent="1" vertex="1">
          <mxGeometry x="810" y="980" width="160" height="30" as="geometry" />
        </mxCell>
        <mxCell id="c77sjMFtBSOwkNbIwre2-56" style="edgeStyle=orthogonalEdgeStyle;rounded=0;orthogonalLoop=1;jettySize=auto;html=1;entryX=1;entryY=0.5;entryDx=0;entryDy=0;fontColor=#000000;exitX=0.394;exitY=1.011;exitDx=0;exitDy=0;exitPerimeter=0;" parent="1" source="c77sjMFtBSOwkNbIwre2-52" target="c77sjMFtBSOwkNbIwre2-55" edge="1">
          <mxGeometry relative="1" as="geometry">
            <Array as="points">
              <mxPoint x="657" y="1126" />
            </Array>
          </mxGeometry>
        </mxCell>
        <mxCell id="c77sjMFtBSOwkNbIwre2-52" value="服务主管审核，发送巡检报告" style="rounded=1;whiteSpace=wrap;html=1;align=left;fillColor=#e1d5e7;strokeColor=#9673a6;" parent="1" vertex="1">
          <mxGeometry x="610" y="1030" width="120" height="60" as="geometry" />
        </mxCell>
        <mxCell id="c77sjMFtBSOwkNbIwre2-58" style="edgeStyle=orthogonalEdgeStyle;rounded=0;orthogonalLoop=1;jettySize=auto;html=1;entryX=0.5;entryY=0;entryDx=0;entryDy=0;fontColor=#000000;" parent="1" source="c77sjMFtBSOwkNbIwre2-55" target="c77sjMFtBSOwkNbIwre2-57" edge="1">
          <mxGeometry relative="1" as="geometry" />
        </mxCell>
        <mxCell id="c77sjMFtBSOwkNbIwre2-55" value="查看报告并评价" style="rounded=1;whiteSpace=wrap;html=1;align=center;fillColor=#dae8fc;strokeColor=#6c8ebf;" parent="1" vertex="1">
          <mxGeometry x="7" y="1096" width="120" height="60" as="geometry" />
        </mxCell>
        <mxCell id="c77sjMFtBSOwkNbIwre2-57" value="结束" style="ellipse;whiteSpace=wrap;html=1;aspect=fixed;align=center;fillColor=#ffe6cc;strokeColor=#d79b00;" parent="1" vertex="1">
          <mxGeometry x="27" y="1190" width="80" height="80" as="geometry" />
        </mxCell>
        <mxCell id="c77sjMFtBSOwkNbIwre2-69" value="" style="endArrow=none;dashed=1;html=1;dashPattern=1 3;strokeWidth=2;fontColor=#000000;exitX=1;exitY=0.5;exitDx=0;exitDy=0;entryX=-0.01;entryY=0.533;entryDx=0;entryDy=0;entryPerimeter=0;" parent="1" source="c77sjMFtBSOwkNbIwre2-52" target="c77sjMFtBSOwkNbIwre2-70" edge="1">
          <mxGeometry width="50" height="50" relative="1" as="geometry">
            <mxPoint x="760" y="1140" as="sourcePoint" />
            <mxPoint x="807" y="1110" as="targetPoint" />
          </mxGeometry>
        </mxCell>
        <mxCell id="c77sjMFtBSOwkNbIwre2-70" value="工单：更改为 -- 待评价" style="text;html=1;align=left;verticalAlign=middle;resizable=0;points=[];autosize=1;strokeColor=#d79b00;fillColor=#ffcd28;gradientColor=#ffa500;" parent="1" vertex="1">
          <mxGeometry x="810" y="1050" width="140" height="20" as="geometry" />
        </mxCell>
        <mxCell id="c77sjMFtBSOwkNbIwre2-72" value="工单：更改为 -- 已关闭" style="text;html=1;align=left;verticalAlign=middle;resizable=0;points=[];autosize=1;strokeColor=#d79b00;fillColor=#ffcd28;gradientColor=#ffa500;" parent="1" vertex="1">
          <mxGeometry x="810" y="1220" width="140" height="20" as="geometry" />
        </mxCell>
        <mxCell id="c77sjMFtBSOwkNbIwre2-73" value="" style="endArrow=none;dashed=1;html=1;fontColor=#000000;" parent="1" edge="1">
          <mxGeometry width="50" height="50" relative="1" as="geometry">
            <mxPoint x="150" y="1300" as="sourcePoint" />
            <mxPoint x="150" y="10" as="targetPoint" />
          </mxGeometry>
        </mxCell>
        <mxCell id="c77sjMFtBSOwkNbIwre2-74" value="" style="endArrow=none;dashed=1;html=1;fontColor=#000000;" parent="1" edge="1">
          <mxGeometry width="50" height="50" relative="1" as="geometry">
            <mxPoint x="360" y="1301" as="sourcePoint" />
            <mxPoint x="360" y="11" as="targetPoint" />
          </mxGeometry>
        </mxCell>
        <mxCell id="c77sjMFtBSOwkNbIwre2-77" value="" style="endArrow=none;dashed=1;html=1;fontColor=#000000;" parent="1" edge="1">
          <mxGeometry width="50" height="50" relative="1" as="geometry">
            <mxPoint x="560" y="1300" as="sourcePoint" />
            <mxPoint x="560" y="10" as="targetPoint" />
          </mxGeometry>
        </mxCell>
        <mxCell id="c77sjMFtBSOwkNbIwre2-78" value="" style="endArrow=none;dashed=1;html=1;fontColor=#000000;" parent="1" edge="1">
          <mxGeometry width="50" height="50" relative="1" as="geometry">
            <mxPoint x="759.0000000000002" y="1305" as="sourcePoint" />
            <mxPoint x="759.0000000000002" y="15" as="targetPoint" />
          </mxGeometry>
        </mxCell>
        <mxCell id="c77sjMFtBSOwkNbIwre2-85" value="&lt;br&gt;&lt;br&gt;客户" style="shape=actor;whiteSpace=wrap;html=1;fontColor=#ffffff;align=center;fillColor=#647687;strokeColor=#314354;" parent="1" vertex="1">
          <mxGeometry x="60" y="20" width="40" height="60" as="geometry" />
        </mxCell>
        <mxCell id="c77sjMFtBSOwkNbIwre2-86" value="&lt;br&gt;&lt;br&gt;客服" style="shape=actor;whiteSpace=wrap;html=1;fontColor=#ffffff;align=center;fillColor=#647687;strokeColor=#314354;" parent="1" vertex="1">
          <mxGeometry x="230" y="20" width="40" height="60" as="geometry" />
        </mxCell>
        <mxCell id="c77sjMFtBSOwkNbIwre2-87" value="&lt;br&gt;&lt;br&gt;工程师" style="shape=actor;whiteSpace=wrap;html=1;fontColor=#ffffff;align=center;fillColor=#647687;strokeColor=#314354;" parent="1" vertex="1">
          <mxGeometry x="438" y="20" width="40" height="60" as="geometry" />
        </mxCell>
        <mxCell id="c77sjMFtBSOwkNbIwre2-88" value="&lt;br&gt;&lt;br&gt;服务&lt;br&gt;主管" style="shape=actor;whiteSpace=wrap;html=1;fontColor=#ffffff;align=center;fillColor=#647687;strokeColor=#314354;" parent="1" vertex="1">
          <mxGeometry x="640" y="20" width="40" height="60" as="geometry" />
        </mxCell>
      </root>
    </mxGraphModel>
  </diagram>
</mxfile>
